<svg xmlns="http://www.w3.org/2000/svg" width="1720" height="1340" viewBox="0 0 1720 1340" font-family="'Segoe UI','Microsoft YaHei',sans-serif">
  <defs>
    <marker id="arrow" markerWidth="10" markerHeight="10" refX="8" refY="3" orient="auto" markerUnits="strokeWidth">
      <path d="M0,0 L8,3 L0,6 Z" fill="#37474f"/>
    </marker>
    <marker id="arrowEvt" markerWidth="10" markerHeight="10" refX="8" refY="3" orient="auto" markerUnits="strokeWidth">
      <path d="M0,0 L8,3 L0,6 Z" fill="#ef6c00"/>
    </marker>
    <marker id="arrowAI" markerWidth="10" markerHeight="10" refX="8" refY="3" orient="auto" markerUnits="strokeWidth">
      <path d="M0,0 L8,3 L0,6 Z" fill="#ff8f00"/>
    </marker>
    <style>
      .t{font-size:13px;fill:#263238}
      .h{font-size:15px;font-weight:700;fill:#1a237e}
      .s{font-size:11px;fill:#546e7a}
      .lbl{font-size:11px;fill:#37474f}
      .layer{font-size:13px;font-weight:700;fill:#90a4ae;letter-spacing:2px}
      .comp{font-size:14px;font-weight:700}
    </style>
  </defs>

  <rect x="0" y="0" width="1720" height="1340" fill="#fafafa"/>
  <text x="40" y="40" font-size="24" font-weight="700" fill="#0d47a1">巡检用例管理系统 — 功能架构图</text>
  <text x="40" y="64" class="s" font-size="13">配置驱动的动态数据管理平台 · UML 组件视图（前端 SPA / Flask 业务域 / 引擎调度 / 数据存储 / AI 子系统）</text>

  <!-- ===================== Layer: 外部参与者 ===================== -->
  <text x="40" y="100" class="layer">外部参与者 &amp; 集成点</text>
  <!-- 浏览器用户 -->
  <g>
    <rect x="40" y="112" width="240" height="60" rx="6" fill="#ffffff" stroke="#424242" stroke-width="1.5"/>
    <circle cx="72" cy="135" r="9" fill="none" stroke="#424242"/><path d="M58 162 a14 14 0 0 1 28 0" fill="none" stroke="#424242"/>
    <text x="98" y="138" class="comp" fill="#424242">浏览器用户</text>
    <text x="98" y="158" class="s">管理员 / 开发 / 访客</text>
  </g>
  <!-- Open API 调用方 -->
  <g>
    <rect x="300" y="112" width="240" height="60" rx="6" fill="#ffffff" stroke="#424242" stroke-width="1.5"/>
    <text x="316" y="138" class="comp" fill="#424242">外部系统 (Open API)</text>
    <text x="316" y="158" class="s">API Key 认证按集合读写</text>
  </g>
  <!-- Webhook / ETL HTTP -->
  <g>
    <rect x="560" y="112" width="250" height="60" rx="6" fill="#ffffff" stroke="#424242" stroke-width="1.5"/>
    <text x="576" y="138" class="comp" fill="#424242">第三方 HTTP 端点</text>
    <text x="576" y="158" class="s">Webhook 接收端 / ETL 数据源</text>
  </g>
  <!-- LLM Provider -->
  <g>
    <rect x="1440" y="112" width="240" height="60" rx="6" fill="#ffffff" stroke="#424242" stroke-width="1.5"/>
    <text x="1456" y="138" class="comp" fill="#424242">LLM Provider</text>
    <text x="1456" y="158" class="s">Claude / MiMo 等大模型</text>
  </g>

  <!-- ===================== Layer: 前端 SPA ===================== -->
  <text x="40" y="206" class="layer">前端 — Vue 3 单页应用 (Vite, 端口 5173)</text>
  <rect x="40" y="216" width="1280" height="120" rx="8" fill="#e3f2fd" stroke="#1976d2" stroke-width="1.5"/>
  <!-- UML comp icon -->
  <rect x="52" y="228" width="18" height="14" fill="#fff" stroke="#1976d2"/><rect x="48" y="231" width="8" height="3" fill="#fff" stroke="#1976d2"/><rect x="48" y="237" width="8" height="3" fill="#fff" stroke="#1976d2"/>
  <text x="80" y="240" class="comp" fill="#0d47a1">Vue SPA</text>
  <g class="t">
    <rect x="60" y="252" width="290" height="70" rx="5" fill="#fff" stroke="#90caf9"/>
    <text x="74" y="272" font-weight="700" fill="#1565c0">视图层 Views</text>
    <text x="74" y="291" class="s">DynamicPage（表格/看板/Excel/日历/甘特）</text>
    <text x="74" y="308" class="s">admin（工作流设计器）· 工作流收件箱 · ai-chat</text>
  </g>
  <g class="t">
    <rect x="370" y="252" width="300" height="70" rx="5" fill="#fff" stroke="#90caf9"/>
    <text x="384" y="272" font-weight="700" fill="#1565c0">状态层 Pinia Stores</text>
    <text x="384" y="291" class="s">auth · menu · pageConfig · systemConfig</text>
    <text x="384" y="308" class="s">aiChat · aiChatBatches · aiScanTask · …</text>
  </g>
  <g class="t">
    <rect x="690" y="252" width="290" height="70" rx="5" fill="#fff" stroke="#90caf9"/>
    <text x="704" y="272" font-weight="700" fill="#1565c0">API 层 (Axios)</text>
    <text x="704" y="291" class="s">请求拦截注入 JWT · 统一错误处理</text>
    <text x="704" y="308" class="s">/api 前缀经 Vite 代理转后端</text>
  </g>
  <g class="t">
    <rect x="1000" y="252" width="300" height="70" rx="5" fill="#fff" stroke="#90caf9"/>
    <text x="1014" y="272" font-weight="700" fill="#1565c0">动态路由 Router</text>
    <text x="1014" y="291" class="s">运行时读 menus 表生成路由</text>
    <text x="1014" y="308" class="s">守卫做 RBAC 前端门禁（UX）</text>
  </g>

  <!-- ===================== Layer: Flask 业务域 ===================== -->
  <text x="40" y="380" class="layer">后端 — Flask API 网关 (端口 3002, 34 个蓝图按业务域分组)</text>

  <!-- 域 1 认证与权限 -->
  <g>
    <rect x="40" y="392" width="300" height="104" rx="8" fill="#ffebee" stroke="#c62828" stroke-width="1.5"/>
    <rect x="52" y="404" width="18" height="14" fill="#fff" stroke="#c62828"/><rect x="48" y="407" width="8" height="3" fill="#fff" stroke="#c62828"/><rect x="48" y="413" width="8" height="3" fill="#fff" stroke="#c62828"/>
    <text x="80" y="416" class="comp" fill="#b71c1c">① 认证与权限</text>
    <text x="54" y="438" class="s">auth · users · roles</text>
    <text x="54" y="456" class="lbl">JWT 签发/校验、自定义角色 RBAC</text>
    <text x="54" y="474" class="lbl">@require_permission / @write_required</text>
    <text x="54" y="490" class="lbl">后端权威，前端仅做 UX 门禁</text>
  </g>
  <!-- 域 2 配置中心 -->
  <g>
    <rect x="360" y="392" width="300" height="104" rx="8" fill="#f3e5f5" stroke="#7b1fa2" stroke-width="1.5"/>
    <rect x="372" y="404" width="18" height="14" fill="#fff" stroke="#7b1fa2"/><rect x="368" y="407" width="8" height="3" fill="#fff" stroke="#7b1fa2"/><rect x="368" y="413" width="8" height="3" fill="#fff" stroke="#7b1fa2"/>
    <text x="400" y="416" class="comp" fill="#6a1b9a">② 配置中心</text>
    <text x="374" y="438" class="s">menus · page_configs · column_views</text>
    <text x="374" y="456" class="lbl">系统配置 system_config / home_widgets</text>
    <text x="374" y="474" class="lbl">字段 schema 驱动 UI 与 API 自动生成</text>
    <text x="374" y="490" class="lbl">首页区块（含快速录入表单）</text>
  </g>
  <!-- 域 3 动态数据核心 -->
  <g>
    <rect x="680" y="392" width="300" height="104" rx="8" fill="#e8f5e9" stroke="#2e7d32" stroke-width="1.5"/>
    <rect x="692" y="404" width="18" height="14" fill="#fff" stroke="#2e7d32"/><rect x="688" y="407" width="8" height="3" fill="#fff" stroke="#2e7d32"/><rect x="688" y="413" width="8" height="3" fill="#fff" stroke="#2e7d32"/>
    <text x="720" y="416" class="comp" fill="#1b5e20">③ 动态数据核心</text>
    <text x="694" y="438" class="s">dynamic（万能 CRUD）· relations 关联</text>
    <text x="694" y="456" class="lbl">query · comments · timeline · 单表 JSONB</text>
    <text x="694" y="474" class="lbl" font-weight="700" fill="#1b5e20">workflows 跨页工作流引擎</text>
    <text x="694" y="490" class="lbl">推进/驳回 · 阶段编排 · 角色待办 · 分支隔离</text>
  </g>
  <!-- 域 4 脚本扩展 -->
  <g>
    <rect x="1000" y="392" width="300" height="104" rx="8" fill="#fff3e0" stroke="#ef6c00" stroke-width="1.5"/>
    <rect x="1012" y="404" width="18" height="14" fill="#fff" stroke="#ef6c00"/><rect x="1008" y="407" width="8" height="3" fill="#fff" stroke="#ef6c00"/><rect x="1008" y="413" width="8" height="3" fill="#fff" stroke="#ef6c00"/>
    <text x="1040" y="416" class="comp" fill="#e65100">④ 脚本扩展</text>
    <text x="1014" y="438" class="s">export_scripts · validation_scripts</text>
    <text x="1014" y="456" class="lbl">导出脚本（页面级/菜单级）</text>
    <text x="1014" y="474" class="lbl">校验脚本绑定页面, 写前执行</text>
    <text x="1014" y="490" class="lbl">沙箱执行, 禁 import/eval/open</text>
  </g>

  <!-- 域 5 数据流转 -->
  <g>
    <rect x="40" y="514" width="300" height="104" rx="8" fill="#e0f2f1" stroke="#00796b" stroke-width="1.5"/>
    <rect x="52" y="526" width="18" height="14" fill="#fff" stroke="#00796b"/><rect x="48" y="529" width="8" height="3" fill="#fff" stroke="#00796b"/><rect x="48" y="535" width="8" height="3" fill="#fff" stroke="#00796b"/>
    <text x="80" y="538" class="comp" fill="#004d40">⑤ 数据流转</text>
    <text x="54" y="560" class="s">etl_tasks · menu_export · data_files</text>
    <text x="54" y="578" class="lbl">ETL 抽取/转换/映射/过滤/写入</text>
    <text x="54" y="596" class="lbl">菜单级批量导出 ZIP</text>
    <text x="54" y="612" class="lbl">文件/图片字段存储</text>
  </g>
  <!-- 域 6 开放集成 -->
  <g>
    <rect x="360" y="514" width="300" height="104" rx="8" fill="#e0f2f1" stroke="#00796b" stroke-width="1.5"/>
    <rect x="372" y="526" width="18" height="14" fill="#fff" stroke="#00796b"/><rect x="368" y="529" width="8" height="3" fill="#fff" stroke="#00796b"/><rect x="368" y="535" width="8" height="3" fill="#fff" stroke="#00796b"/>
    <text x="400" y="538" class="comp" fill="#004d40">⑥ 开放集成</text>
    <text x="374" y="560" class="s">api_keys · open_api · webhook</text>
    <text x="374" y="578" class="lbl">trigger_rules 数据联动规则</text>
    <text x="374" y="596" class="lbl">Webhook 事件触发 + HMAC 签名</text>
    <text x="374" y="612" class="lbl">对外暴露集合数据 API</text>
  </g>
  <!-- 域 7 版本协作 -->
  <g>
    <rect x="680" y="514" width="300" height="104" rx="8" fill="#e8eaf6" stroke="#3949ab" stroke-width="1.5"/>
    <rect x="692" y="526" width="18" height="14" fill="#fff" stroke="#3949ab"/><rect x="688" y="529" width="8" height="3" fill="#fff" stroke="#3949ab"/><rect x="688" y="535" width="8" height="3" fill="#fff" stroke="#3949ab"/>
    <text x="720" y="538" class="comp" fill="#283593">⑦ 版本协作</text>
    <text x="694" y="560" class="s">project_versions · cross_project_deps</text>
    <text x="694" y="578" class="lbl">项目级分支/快照, 合并/锁定</text>
    <text x="694" y="596" class="lbl">跨项目依赖（track-main/rw/ro）</text>
    <text x="694" y="612" class="lbl">依赖校验 + 通知</text>
  </g>
  <!-- 域 8 运维监控 -->
  <g>
    <rect x="1000" y="514" width="300" height="104" rx="8" fill="#eceff1" stroke="#546e7a" stroke-width="1.5"/>
    <rect x="1012" y="526" width="18" height="14" fill="#fff" stroke="#546e7a"/><rect x="1008" y="529" width="8" height="3" fill="#fff" stroke="#546e7a"/><rect x="1008" y="535" width="8" height="3" fill="#fff" stroke="#546e7a"/>
    <text x="1040" y="538" class="comp" fill="#37474f">⑧ 运维监控</text>
    <text x="1014" y="560" class="s">operation_logs · backups</text>
    <text x="1014" y="578" class="lbl">notifications 通知 · dashboards 仪表盘</text>
    <text x="1014" y="596" class="lbl">操作审计 · 备份/还原/差异对比</text>
    <text x="1014" y="612" class="lbl">定时备份调度</text>
  </g>

  <!-- 域 9 AI 智能 (跨整行) -->
  <g>
    <rect x="40" y="636" width="1260" height="98" rx="8" fill="#fff8e1" stroke="#ff8f00" stroke-width="1.5"/>
    <rect x="52" y="648" width="18" height="14" fill="#fff" stroke="#ff8f00"/><rect x="48" y="651" width="8" height="3" fill="#fff" stroke="#ff8f00"/><rect x="48" y="657" width="8" height="3" fill="#fff" stroke="#ff8f00"/>
    <text x="80" y="660" class="comp" fill="#e65100">⑨ AI 智能助手</text>
    <text x="54" y="684" class="s">ai (配置) · ai_chat (对话/SSE 代理) · ai_chat_batches (批任务) · ai_chat_prompt_templates · ai_scan_tasks (定时流水线)</text>
    <text x="54" y="706" class="lbl">对话：@子智能体 + 模型选择，SSE 流式代理；批任务：N 文件并发 (限流 3)；定时：扫描数据页→AI 处理→结构化结果回写记录</text>
    <text x="54" y="724" class="lbl">浏览器只与 Flask 通信；Flask 作为网关与 SSE 代理，对接 OpenCode；平台能力经独立 MCP Server 暴露给 Agent</text>
  </g>

  <!-- ===================== Layer: 引擎与后台调度 ===================== -->
  <text x="40" y="772" class="layer">引擎与后台调度 (Flask 进程内, WERKZEUG_RUN_MAIN 守卫)</text>
  <g>
    <rect x="40" y="784" width="170" height="76" rx="6" fill="#fffde7" stroke="#f9a825" stroke-width="1.3"/>
    <text x="54" y="806" class="t" font-weight="700" fill="#f57f17">script_runner 沙箱</text>
    <text x="54" y="826" class="s">导出/校验脚本执行</text>
    <text x="54" y="844" class="s">超时 + 禁危险内置</text>
  </g>
  <g>
    <rect x="222" y="784" width="170" height="76" rx="6" fill="#fffde7" stroke="#f9a825" stroke-width="1.3"/>
    <text x="236" y="806" class="t" font-weight="700" fill="#f57f17">etl_engine</text>
    <text x="236" y="826" class="s">步骤编排执行</text>
    <text x="236" y="844" class="s">HTTP 抽取/转换</text>
  </g>
  <g>
    <rect x="404" y="784" width="170" height="76" rx="6" fill="#fffde7" stroke="#f9a825" stroke-width="1.3"/>
    <text x="418" y="806" class="t" font-weight="700" fill="#f57f17">webhook / trigger</text>
    <text x="418" y="826" class="s">事件触发 + 重试</text>
    <text x="418" y="844" class="s">数据联动规则</text>
  </g>
  <!-- 跨页工作流引擎（同步钩子） -->
  <g>
    <rect x="586" y="784" width="170" height="76" rx="6" fill="#fff3e0" stroke="#2e7d32" stroke-width="1.6"/>
    <text x="600" y="806" class="t" font-weight="700" fill="#1b5e20">workflow_engine</text>
    <text x="600" y="826" class="s">状态转换→阶段推进/回退</text>
    <text x="600" y="844" class="s">原子 spawn 下游 · 同事务</text>
  </g>
  <g>
    <rect x="768" y="784" width="170" height="76" rx="6" fill="#fffde7" stroke="#f9a825" stroke-width="1.3"/>
    <text x="782" y="806" class="t" font-weight="700" fill="#f57f17">batch_engine</text>
    <text x="782" y="826" class="s">守护线程 + 池(3)</text>
    <text x="782" y="844" class="s">FIFO 认领子会话</text>
  </g>
  <g>
    <rect x="950" y="784" width="170" height="76" rx="6" fill="#fffde7" stroke="#f9a825" stroke-width="1.3"/>
    <text x="964" y="806" class="t" font-weight="700" fill="#f57f17">ai_scan_engine</text>
    <text x="964" y="826" class="s">认领记录→处理中</text>
    <text x="964" y="844" class="s">jsonb_set 回写</text>
  </g>
  <g>
    <rect x="1132" y="784" width="168" height="76" rx="6" fill="#fffde7" stroke="#f9a825" stroke-width="1.3"/>
    <text x="1146" y="806" class="t" font-weight="700" fill="#f57f17">调度器 ×3</text>
    <text x="1146" y="824" class="s">backup · dependency</text>
    <text x="1146" y="842" class="s">ai_scan (APScheduler)</text>
  </g>

  <!-- ===================== Layer: 数据与存储 ===================== -->
  <text x="40" y="896" class="layer">数据与存储</text>
  <!-- PostgreSQL -->
  <g>
    <path d="M40 916 h820 v18 a410 9 0 0 1 -820 0 z" fill="#d7ccc9"/>
    <rect x="40" y="916" width="820" height="120" rx="0" fill="#efebe9" stroke="#5d4037" stroke-width="1.5"/>
    <ellipse cx="450" cy="916" rx="410" ry="9" fill="#efebe9" stroke="#5d4037" stroke-width="1.5"/>
    <text x="60" y="912" class="comp" fill="#4e342e">PostgreSQL — 单表 JSONB 存储 (库 casemanage)</text>
    <text x="60" y="952" class="s">核心：dynamic_data · menus · page_configs · data_relations · users   工作流：workflow_definitions · workflow_instances</text>
    <text x="60" y="972" class="s">版本：project_versions · project_dependencies   集成：webhook_rules/logs · api_keys · trigger_rules</text>
    <text x="60" y="992" class="s">脚本：export_scripts · validation_scripts · etl_tasks/logs   运维：operation_logs · backups · notifications</text>
    <text x="60" y="1012" class="s">AI：ai_chat_sessions/messages · ai_chat_batches · ai_chat_prompt_templates · ai_scan_tasks · ai_settings</text>
    <text x="60" y="1030" class="s">其它：dashboards · home_widgets · system_config · column_views · record_comments</text>
  </g>
  <!-- 文件存储 -->
  <g>
    <rect x="880" y="916" width="420" height="120" rx="8" fill="#efebe9" stroke="#5d4037" stroke-width="1.5"/>
    <rect x="892" y="928" width="18" height="14" fill="#fff" stroke="#5d4037"/><rect x="888" y="931" width="8" height="3" fill="#fff" stroke="#5d4037"/><rect x="888" y="937" width="8" height="3" fill="#fff" stroke="#5d4037"/>
    <text x="920" y="940" class="comp" fill="#4e342e">文件存储 (仓库外)</text>
    <text x="894" y="968" class="s">DATA_FILES_ROOT — 数据页 文件/图片字段</text>
    <text x="894" y="990" class="s">AI_WORKSPACE_ROOT — 每会话隔离工作区</text>
    <text x="894" y="1012" class="s">batch-staging — 批任务上传暂存</text>
    <text x="894" y="1030" class="s">backups — 系统备份文件</text>
  </g>

  <!-- ===================== Right: AI 子系统 (外部进程) ===================== -->
  <text x="1340" y="380" class="layer">AI 子系统 (独立进程)</text>
  <!-- OpenCode -->
  <g>
    <rect x="1340" y="392" width="340" height="120" rx="8" fill="#ede7f6" stroke="#5e35b1" stroke-width="1.6"/>
    <rect x="1352" y="404" width="18" height="14" fill="#fff" stroke="#5e35b1"/><rect x="1348" y="407" width="8" height="3" fill="#fff" stroke="#5e35b1"/><rect x="1348" y="413" width="8" height="3" fill="#fff" stroke="#5e35b1"/>
    <text x="1380" y="416" class="comp" fill="#4527a0">OpenCode 运行时</text>
    <text x="1354" y="440" class="s">opencode serve (HTTP :4096)</text>
    <text x="1354" y="460" class="lbl">Agent 编排 · 工具调用 · SSE 事件流</text>
    <text x="1354" y="478" class="lbl">primary/subagent 多智能体</text>
    <text x="1354" y="496" class="lbl">调用 LLM Provider 完成推理</text>
  </g>
  <!-- MCP Server -->
  <g>
    <rect x="1340" y="528" width="340" height="120" rx="8" fill="#e1f5fe" stroke="#0277bd" stroke-width="1.6"/>
    <rect x="1352" y="540" width="18" height="14" fill="#fff" stroke="#0277bd"/><rect x="1348" y="543" width="8" height="3" fill="#fff" stroke="#0277bd"/><rect x="1348" y="549" width="8" height="3" fill="#fff" stroke="#0277bd"/>
    <text x="1380" y="552" class="comp" fill="#01579b">MCP Server</text>
    <text x="1354" y="576" class="s">FastAPI + MCP Streamable-HTTP (:3003)</text>
    <text x="1354" y="596" class="lbl">向 Agent 暴露平台能力 (查询/读取)</text>
    <text x="1354" y="614" class="lbl">opaque token 经 DB 校验 → 推导用户/RBAC</text>
    <text x="1354" y="632" class="lbl">与 Flask 解耦, 独立 venv 运行</text>
  </g>
  <!-- 本地工具 -->
  <g>
    <rect x="1340" y="664" width="340" height="70" rx="8" fill="#f1f8e9" stroke="#689f38" stroke-width="1.4"/>
    <text x="1354" y="688" class="t" font-weight="700" fill="#558b2f">本地工具 scripts/</text>
    <text x="1354" y="708" class="s">debug_export_script.py — 导出脚本本地调试</text>
    <text x="1354" y="726" class="s">拉真实数据 + 完整 traceback</text>
  </g>

  <!-- ===================== 连线 / 数据流 ===================== -->
  <!-- 用户 <-> SPA -->
  <line x1="160" y1="172" x2="160" y2="216" stroke="#37474f" stroke-width="1.6" marker-end="url(#arrow)"/>
  <line x1="190" y1="216" x2="190" y2="172" stroke="#37474f" stroke-width="1.6" marker-end="url(#arrow)"/>
  <!-- SPA -> Flask (代理) 多条汇聚 -->
  <line x1="680" y1="336" x2="680" y2="392" stroke="#37474f" stroke-width="2" marker-end="url(#arrow)"/>
  <text x="690" y="362" class="lbl">HTTPS · /api 代理 · Bearer JWT</text>
  <line x1="450" y1="336" x2="200" y2="392" stroke="#37474f" stroke-width="1.2" marker-end="url(#arrow)"/>
  <line x1="900" y1="336" x2="1140" y2="392" stroke="#37474f" stroke-width="1.2" marker-end="url(#arrow)"/>

  <!-- Open API 调用方 -> 域6 -->
  <path d="M420 172 C 430 320, 470 420, 480 514" fill="none" stroke="#37474f" stroke-width="1.4" stroke-dasharray="2,0" marker-end="url(#arrow)"/>
  <text x="436" y="300" class="lbl">REST + API Key</text>

  <!-- 业务域 -> 引擎 -->
  <line x1="120" y1="618" x2="300" y2="784" stroke="#f9a825" stroke-width="1.3" marker-end="url(#arrowEvt)"/>
  <text x="120" y="700" class="lbl">ETL 触发</text>
  <line x1="500" y1="618" x2="489" y2="784" stroke="#f9a825" stroke-width="1.3" marker-end="url(#arrowEvt)"/>
  <text x="430" y="700" class="lbl">事件触发</text>
  <!-- ③ 状态转换 -> workflow_engine（同步钩子，与状态写入同事务） -->
  <line x1="671" y1="760" x2="671" y2="784" stroke="#2e7d32" stroke-width="1.8" marker-end="url(#arrow)"/>
  <text x="600" y="754" class="lbl" font-weight="700" fill="#1b5e20">③ update_item 状态钩子</text>
  <line x1="853" y1="734" x2="853" y2="784" stroke="#f9a825" stroke-width="1.3" marker-end="url(#arrowEvt)"/>
  <line x1="1035" y1="734" x2="1035" y2="784" stroke="#f9a825" stroke-width="1.3" marker-end="url(#arrowEvt)"/>
  <line x1="1180" y1="618" x2="1216" y2="784" stroke="#f9a825" stroke-width="1.3" marker-end="url(#arrowEvt)"/>
  <text x="1170" y="700" class="lbl">定时调度</text>

  <!-- 引擎/域 -> PostgreSQL -->
  <line x1="430" y1="860" x2="430" y2="916" stroke="#37474f" stroke-width="2" marker-end="url(#arrow)"/>
  <text x="440" y="894" class="lbl">SQL · 连接池 (1-10)</text>
  <line x1="140" y1="860" x2="160" y2="916" stroke="#37474f" stroke-width="1.2" marker-end="url(#arrow)"/>
  <line x1="980" y1="860" x2="700" y2="916" stroke="#37474f" stroke-width="1.2" marker-end="url(#arrow)"/>
  <!-- 批任务/扫描 -> 文件存储 -->
  <line x1="990" y1="860" x2="1040" y2="916" stroke="#37474f" stroke-width="1.2" marker-end="url(#arrow)"/>

  <!-- AI 域 -> OpenCode (SSE) -->
  <path d="M1300 680 C 1330 640, 1330 540, 1340 470" fill="none" stroke="#ff8f00" stroke-width="2" marker-end="url(#arrowAI)"/>
  <text x="1306" y="600" class="lbl" fill="#e65100">SSE 代理</text>
  <text x="1306" y="616" class="lbl" fill="#e65100">启动会话</text>

  <!-- OpenCode -> MCP (工具调用) -->
  <line x1="1510" y1="512" x2="1510" y2="528" stroke="#ff8f00" stroke-width="2" marker-end="url(#arrowAI)"/>
  <text x="1520" y="524" class="lbl" fill="#e65100">MCP 工具调用 (token)</text>

  <!-- OpenCode -> LLM -->
  <line x1="1560" y1="392" x2="1560" y2="172" stroke="#37474f" stroke-width="1.6" marker-end="url(#arrow)"/>
  <text x="1570" y="300" class="lbl">推理请求</text>

  <!-- MCP -> PostgreSQL -->
  <path d="M1510 648 C 1510 860, 900 900, 860 962" fill="none" stroke="#0277bd" stroke-width="1.6" stroke-dasharray="5,4" marker-end="url(#arrow)"/>
  <text x="1150" y="900" class="lbl" fill="#01579b">MCP 直连 DB 查询 (受 RBAC 约束)</text>

  <!-- webhook 引擎 -> 第三方 (回到顶部右) -->
  <path d="M644 800 C 700 770, 690 220, 685 172" fill="none" stroke="#ef6c00" stroke-width="1.4" stroke-dasharray="5,4" marker-end="url(#arrowEvt)"/>
  <text x="700" y="760" class="lbl" fill="#e65100">Webhook POST + HMAC 签名</text>
  <!-- etl 引擎 -> 第三方 HTTP 源 -->
  <path d="M340 800 C 620 760, 640 220, 650 172" fill="none" stroke="#ef6c00" stroke-width="1.2" stroke-dasharray="5,4" marker-end="url(#arrowEvt)"/>

  <!-- ===================== 图例 ===================== -->
  <g>
    <rect x="1340" y="916" width="340" height="120" rx="8" fill="#ffffff" stroke="#b0bec5" stroke-width="1.2"/>
    <text x="1354" y="938" class="t" font-weight="700" fill="#37474f">图例</text>
    <line x1="1356" y1="958" x2="1396" y2="958" stroke="#37474f" stroke-width="2" marker-end="url(#arrow)"/>
    <text x="1404" y="962" class="s">同步调用 / 数据读写</text>
    <line x1="1356" y1="982" x2="1396" y2="982" stroke="#ef6c00" stroke-width="1.6" stroke-dasharray="5,4" marker-end="url(#arrowEvt)"/>
    <text x="1404" y="986" class="s">异步事件 / 外发请求</text>
    <line x1="1356" y1="1006" x2="1396" y2="1006" stroke="#ff8f00" stroke-width="2" marker-end="url(#arrowAI)"/>
    <text x="1404" y="1010" class="s">AI 数据流 (SSE / MCP)</text>
    <rect x="1356" y="1022" width="16" height="11" fill="#fff" stroke="#37474f"/><rect x="1352" y="1024" width="6" height="2.5" fill="#fff" stroke="#37474f"/><rect x="1352" y="1029" width="6" height="2.5" fill="#fff" stroke="#37474f"/>
    <text x="1404" y="1032" class="s">UML 组件</text>
  </g>

  <text x="40" y="1070" class="s" fill="#90a4ae">注：① 浏览器仅与 Flask 通信；② dynamic 蓝图为 catch-all，注册在最后，避免遮蔽具体路由；③ 引擎/调度器在 Flask 进程内常驻，受 WERKZEUG_RUN_MAIN 守卫避免重载双启。</text>
</svg>
